<mxfile host="app.diagrams.net" modified="2024-05-24T23:26:58.018Z" agent="Mozilla/5.0 (Windows NT 10.0; Win64; x64) AppleWebKit/537.36 (KHTML, like Gecko) Chrome/125.0.0.0 Safari/537.36" etag="wL9l-9kxUQW69xbEgoqj" version="24.4.8" type="device">
  <diagram name="PÃ¡gina-1" id="PoHG5x17-EspzLWQ-xWs">
    <mxGraphModel dx="1195" dy="650" grid="1" gridSize="10" guides="1" tooltips="1" connect="1" arrows="1" fold="1" page="1" pageScale="1" pageWidth="3300" pageHeight="4681" math="0" shadow="0">
      <root>
        <mxCell id="0" />
        <mxCell id="1" parent="0" />
        <mxCell id="R_MmLSpiU9Lxjo0bH1um-1" value="&lt;b&gt;&lt;font style=&quot;font-size: 19px;&quot;&gt;Campeonato Futebol&lt;/font&gt;&lt;/b&gt;" style="text;html=1;align=center;verticalAlign=middle;whiteSpace=wrap;rounded=0;" vertex="1" parent="1">
          <mxGeometry x="165" width="270" height="30" as="geometry" />
        </mxCell>
        <mxCell id="R_MmLSpiU9Lxjo0bH1um-2" value="&lt;b&gt;&lt;font style=&quot;font-size: 19px;&quot;&gt;Diagrama Entidade-Relacionamento&lt;/font&gt;&lt;/b&gt;" style="text;html=1;align=center;verticalAlign=middle;whiteSpace=wrap;rounded=0;" vertex="1" parent="1">
          <mxGeometry x="130" y="30" width="340" height="30" as="geometry" />
        </mxCell>
        <mxCell id="R_MmLSpiU9Lxjo0bH1um-11" value="" style="edgeStyle=orthogonalEdgeStyle;rounded=0;orthogonalLoop=1;jettySize=auto;html=1;endArrow=none;endFill=0;" edge="1" parent="1" source="R_MmLSpiU9Lxjo0bH1um-3" target="R_MmLSpiU9Lxjo0bH1um-10">
          <mxGeometry relative="1" as="geometry" />
        </mxCell>
        <mxCell id="R_MmLSpiU9Lxjo0bH1um-14" value="" style="edgeStyle=orthogonalEdgeStyle;rounded=0;orthogonalLoop=1;jettySize=auto;html=1;endArrow=none;endFill=0;entryX=0;entryY=0.5;entryDx=0;entryDy=0;exitX=0.5;exitY=0;exitDx=0;exitDy=0;" edge="1" parent="1" source="R_MmLSpiU9Lxjo0bH1um-3" target="R_MmLSpiU9Lxjo0bH1um-13">
          <mxGeometry relative="1" as="geometry">
            <Array as="points">
              <mxPoint x="100" y="170" />
            </Array>
          </mxGeometry>
        </mxCell>
        <mxCell id="R_MmLSpiU9Lxjo0bH1um-25" style="edgeStyle=orthogonalEdgeStyle;rounded=0;orthogonalLoop=1;jettySize=auto;html=1;entryX=0.5;entryY=0;entryDx=0;entryDy=0;endArrow=none;endFill=0;" edge="1" parent="1" source="R_MmLSpiU9Lxjo0bH1um-3" target="R_MmLSpiU9Lxjo0bH1um-5">
          <mxGeometry relative="1" as="geometry" />
        </mxCell>
        <mxCell id="R_MmLSpiU9Lxjo0bH1um-3" value="Time" style="rounded=0;whiteSpace=wrap;html=1;" vertex="1" parent="1">
          <mxGeometry x="40" y="282.5" width="120" height="60" as="geometry" />
        </mxCell>
        <mxCell id="R_MmLSpiU9Lxjo0bH1um-24" style="edgeStyle=orthogonalEdgeStyle;rounded=0;orthogonalLoop=1;jettySize=auto;html=1;entryX=0.5;entryY=0;entryDx=0;entryDy=0;endArrow=none;endFill=0;" edge="1" parent="1" source="R_MmLSpiU9Lxjo0bH1um-4" target="R_MmLSpiU9Lxjo0bH1um-9">
          <mxGeometry relative="1" as="geometry" />
        </mxCell>
        <mxCell id="R_MmLSpiU9Lxjo0bH1um-4" value="Partida" style="rounded=0;whiteSpace=wrap;html=1;" vertex="1" parent="1">
          <mxGeometry x="440" y="282.5" width="120" height="60" as="geometry" />
        </mxCell>
        <mxCell id="R_MmLSpiU9Lxjo0bH1um-5" value="&lt;u&gt;Nome&lt;/u&gt;" style="ellipse;whiteSpace=wrap;html=1;" vertex="1" parent="1">
          <mxGeometry x="40" y="362.5" width="120" height="40" as="geometry" />
        </mxCell>
        <mxCell id="R_MmLSpiU9Lxjo0bH1um-6" value="Apelido" style="ellipse;whiteSpace=wrap;html=1;" vertex="1" parent="1">
          <mxGeometry x="40" y="402.5" width="120" height="40" as="geometry" />
        </mxCell>
        <mxCell id="R_MmLSpiU9Lxjo0bH1um-7" value="Dt_Criacao" style="ellipse;whiteSpace=wrap;html=1;" vertex="1" parent="1">
          <mxGeometry x="40" y="442.5" width="120" height="40" as="geometry" />
        </mxCell>
        <mxCell id="R_MmLSpiU9Lxjo0bH1um-9" value="Identificacao" style="ellipse;whiteSpace=wrap;html=1;fontStyle=4" vertex="1" parent="1">
          <mxGeometry x="440" y="362.5" width="120" height="40" as="geometry" />
        </mxCell>
        <mxCell id="R_MmLSpiU9Lxjo0bH1um-21" style="edgeStyle=orthogonalEdgeStyle;rounded=0;orthogonalLoop=1;jettySize=auto;html=1;entryX=0.5;entryY=0;entryDx=0;entryDy=0;endArrow=none;endFill=0;" edge="1" parent="1" source="R_MmLSpiU9Lxjo0bH1um-10" target="R_MmLSpiU9Lxjo0bH1um-20">
          <mxGeometry relative="1" as="geometry" />
        </mxCell>
        <mxCell id="R_MmLSpiU9Lxjo0bH1um-10" value="Participa" style="rhombus;whiteSpace=wrap;html=1;rounded=0;" vertex="1" parent="1">
          <mxGeometry x="260" y="280" width="80" height="65" as="geometry" />
        </mxCell>
        <mxCell id="R_MmLSpiU9Lxjo0bH1um-12" style="edgeStyle=orthogonalEdgeStyle;rounded=0;orthogonalLoop=1;jettySize=auto;html=1;entryX=0;entryY=0.5;entryDx=0;entryDy=0;endArrow=none;endFill=0;" edge="1" parent="1" source="R_MmLSpiU9Lxjo0bH1um-10" target="R_MmLSpiU9Lxjo0bH1um-4">
          <mxGeometry relative="1" as="geometry" />
        </mxCell>
        <mxCell id="R_MmLSpiU9Lxjo0bH1um-15" style="edgeStyle=orthogonalEdgeStyle;rounded=0;orthogonalLoop=1;jettySize=auto;html=1;entryX=0.5;entryY=0;entryDx=0;entryDy=0;endArrow=none;endFill=0;" edge="1" parent="1" source="R_MmLSpiU9Lxjo0bH1um-13" target="R_MmLSpiU9Lxjo0bH1um-4">
          <mxGeometry relative="1" as="geometry" />
        </mxCell>
        <mxCell id="R_MmLSpiU9Lxjo0bH1um-23" style="edgeStyle=orthogonalEdgeStyle;rounded=0;orthogonalLoop=1;jettySize=auto;html=1;entryX=0.5;entryY=1;entryDx=0;entryDy=0;endArrow=none;endFill=0;" edge="1" parent="1" source="R_MmLSpiU9Lxjo0bH1um-13" target="R_MmLSpiU9Lxjo0bH1um-22">
          <mxGeometry relative="1" as="geometry" />
        </mxCell>
        <mxCell id="R_MmLSpiU9Lxjo0bH1um-13" value="Sedia" style="rhombus;whiteSpace=wrap;html=1;rounded=0;" vertex="1" parent="1">
          <mxGeometry x="260" y="140" width="80" height="60" as="geometry" />
        </mxCell>
        <mxCell id="R_MmLSpiU9Lxjo0bH1um-16" value="(1-N)" style="text;html=1;align=center;verticalAlign=middle;whiteSpace=wrap;rounded=0;" vertex="1" parent="1">
          <mxGeometry x="380" y="140" width="60" height="30" as="geometry" />
        </mxCell>
        <mxCell id="R_MmLSpiU9Lxjo0bH1um-17" value="(1-1)" style="text;html=1;align=center;verticalAlign=middle;whiteSpace=wrap;rounded=0;" vertex="1" parent="1">
          <mxGeometry x="160" y="140" width="60" height="30" as="geometry" />
        </mxCell>
        <mxCell id="R_MmLSpiU9Lxjo0bH1um-18" value="(1-N)" style="text;html=1;align=center;verticalAlign=middle;whiteSpace=wrap;rounded=0;" vertex="1" parent="1">
          <mxGeometry x="360" y="282.5" width="60" height="30" as="geometry" />
        </mxCell>
        <mxCell id="R_MmLSpiU9Lxjo0bH1um-19" value="(1-1)" style="text;html=1;align=center;verticalAlign=middle;whiteSpace=wrap;rounded=0;" vertex="1" parent="1">
          <mxGeometry x="180" y="282.5" width="60" height="30" as="geometry" />
        </mxCell>
        <mxCell id="R_MmLSpiU9Lxjo0bH1um-20" value="Gols" style="ellipse;whiteSpace=wrap;html=1;" vertex="1" parent="1">
          <mxGeometry x="240" y="362.5" width="120" height="40" as="geometry" />
        </mxCell>
        <mxCell id="R_MmLSpiU9Lxjo0bH1um-22" value="Gols" style="ellipse;whiteSpace=wrap;html=1;" vertex="1" parent="1">
          <mxGeometry x="240" y="80" width="120" height="40" as="geometry" />
        </mxCell>
        <mxCell id="R_MmLSpiU9Lxjo0bH1um-26" value="Resultado" style="ellipse;whiteSpace=wrap;html=1;" vertex="1" parent="1">
          <mxGeometry x="440" y="402.5" width="120" height="40" as="geometry" />
        </mxCell>
      </root>
    </mxGraphModel>
  </diagram>
</mxfile>
